<mxfile host="65bd71144e" scale="2" border="0">
    <diagram id="FofJFXUCTisTi2Y5DUFA" name="[dev] local demo deployment">
        <mxGraphModel dx="1035" dy="422" grid="1" gridSize="10" guides="1" tooltips="1" connect="1" arrows="1" fold="1" page="1" pageScale="1" pageWidth="850" pageHeight="1100" background="#ffffff" math="0" shadow="0">
            <root>
                <mxCell id="0"/>
                <mxCell id="1" parent="0"/>
                <mxCell id="9" value="connector network" style="rounded=1;whiteSpace=wrap;html=1;fillColor=none;dashed=1;verticalAlign=top;" vertex="1" parent="1">
                    <mxGeometry x="420" y="150" width="300" height="160" as="geometry"/>
                </mxCell>
                <mxCell id="8" value="minikube network" style="rounded=1;whiteSpace=wrap;html=1;fillColor=none;dashed=1;verticalAlign=top;" vertex="1" parent="1">
                    <mxGeometry x="40" y="150" width="300" height="160" as="geometry"/>
                </mxCell>
                <mxCell id="2" value="[minikube]&lt;br&gt;k8s-cluster" style="rounded=1;whiteSpace=wrap;html=1;fillColor=#dae8fc;strokeColor=#6c8ebf;verticalAlign=middle;fontStyle=1;" vertex="1" parent="1">
                    <mxGeometry x="80" y="200" width="120" height="60" as="geometry"/>
                </mxCell>
                <mxCell id="3" value="workflow-provisioner" style="rounded=1;whiteSpace=wrap;html=1;verticalAlign=top;fontStyle=1;fillColor=#dae8fc;strokeColor=#6c8ebf;" vertex="1" parent="1">
                    <mxGeometry x="280" y="180" width="200" height="100" as="geometry"/>
                </mxCell>
                <mxCell id="4" value="edc-connector" style="rounded=1;whiteSpace=wrap;html=1;fillColor=#f8cecc;strokeColor=#b85450;verticalAlign=middle;fontStyle=1;" vertex="1" parent="1">
                    <mxGeometry x="560" y="200" width="120" height="60" as="geometry"/>
                </mxCell>
                <mxCell id="5" value="kubeconfig" style="rounded=1;whiteSpace=wrap;html=1;fillColor=#fff2cc;strokeColor=#d6b656;" vertex="1" parent="1">
                    <mxGeometry x="290" y="240" width="70" height="30" as="geometry"/>
                </mxCell>
                <mxCell id="7" value="database" style="rounded=1;whiteSpace=wrap;html=1;fillColor=#fff2cc;strokeColor=#d6b656;" vertex="1" parent="1">
                    <mxGeometry x="400" y="240" width="70" height="30" as="geometry"/>
                </mxCell>
                <mxCell id="10" value="" style="endArrow=classic;startArrow=classic;html=1;" edge="1" parent="1" target="4">
                    <mxGeometry width="50" height="50" relative="1" as="geometry">
                        <mxPoint x="480" y="230" as="sourcePoint"/>
                        <mxPoint x="450" y="200" as="targetPoint"/>
                    </mxGeometry>
                </mxCell>
                <mxCell id="11" value="" style="endArrow=classic;startArrow=classic;html=1;" edge="1" parent="1">
                    <mxGeometry width="50" height="50" relative="1" as="geometry">
                        <mxPoint x="200" y="229.5" as="sourcePoint"/>
                        <mxPoint x="280" y="229.5" as="targetPoint"/>
                    </mxGeometry>
                </mxCell>
                <mxCell id="12" value="Local Demo Deployment" style="text;html=1;strokeColor=none;fillColor=none;align=left;verticalAlign=middle;rounded=0;fontSize=18;fontStyle=5" vertex="1" parent="1">
                    <mxGeometry x="40" y="100" width="250" height="30" as="geometry"/>
                </mxCell>
            </root>
        </mxGraphModel>
    </diagram>
</mxfile>